<svg xmlns="http://www.w3.org/2000/svg" xmlns:xlink="http://www.w3.org/1999/xlink" width="60" height="60" viewBox="0 0 60 60">
  <defs>
    <filter id="Rectangle_22" x="0" y="0" width="60" height="60" filterUnits="userSpaceOnUse">
      <feOffset input="SourceAlpha"/>
      <feGaussianBlur stdDeviation="2" result="blur"/>
      <feFlood flood-color="#e67543" flood-opacity="0"/>
      <feComposite operator="in" in2="blur"/>
      <feComposite in="SourceGraphic"/>
    </filter>
  </defs>
  <g id="Component_1_1" data-name="Component 1 – 1" transform="translate(6 6)">
    <g transform="matrix(1, 0, 0, 1, -6, -6)" filter="url(#Rectangle_22)">
      <g id="Rectangle_22-2" data-name="Rectangle 22" transform="translate(6 6)" fill="none" stroke="#fff" stroke-width="2">
        <rect width="48" height="48" rx="24" stroke="none"/>
        <rect x="1" y="1" width="46" height="46" rx="23" fill="none"/>
      </g>
    </g>
    <path id="Path_1" data-name="Path 1" d="M17.094,14.03V24h5.438V14.03h4.055l.844-4.584h-4.9V7.823c0-2.423.952-3.352,3.408-3.352.764,0,1.378.019,1.734.056V.37A16.817,16.817,0,0,0,24.416,0C19.4,0,17.094,2.367,17.094,7.472V9.445H14V14.03Z" transform="translate(3.163 12)" fill="none" stroke="#fff" stroke-width="1.5"/>
  </g>
</svg>
